<svg xmlns="http://www.w3.org/2000/svg" width="1200" height="600" viewBox="0 0 1200 600"><defs><linearGradient id="bg"><stop stop-color="#091b2a"/><stop offset="1" stop-color="#0d333b"/></linearGradient><linearGradient id="bar"><stop stop-color="#239c9b"/><stop offset="1" stop-color="#6de2d0"/></linearGradient></defs><rect width="1200" height="600" fill="url(#bg)"/><g fill="none" stroke="#2c6c74" opacity=".32"><path d="M60 140H1140"/><path d="M60 220H1140"/><path d="M60 300H1140"/><path d="M60 380H1140"/><path d="M60 460H1140"/><path d="M60 540H1140"/></g><g font-family="Microsoft YaHei,Arial,sans-serif"><text x="64" y="68" fill="#78e5d6" font-size="20" letter-spacing="3">CRYPTO RESEARCH NOTES • ERC-4626</text><text x="64" y="128" fill="#f0faf9" font-size="34" font-weight="700">金库收益 / 核验增长来源</text><text x="64" y="192" fill="#9bc1c5" font-size="22">份额涨价，先对账，再谈可持续收益。</text><rect x="64" y="260" width="340" height="214" rx="16" fill="#102e39" stroke="#387982"/><text x="88" y="310" fill="#9ed8d4" font-size="20">单位份额价值</text><text x="88" y="374" fill="#e8fffa" font-size="42" font-weight="700">A / S</text><rect x="88" y="416" width="220" height="12" rx="6" fill="url(#bar)"/><rect x="430" y="260" width="340" height="214" rx="16" fill="#102e39" stroke="#387982"/><text x="454" y="310" fill="#9ed8d4" font-size="20">外部转入</text><text x="454" y="374" fill="#e8fffa" font-size="42" font-weight="700">+ 100</text><rect x="454" y="416" width="292" height="12" rx="6" fill="url(#bar)"/><rect x="796" y="260" width="340" height="214" rx="16" fill="#102e39" stroke="#387982"/><text x="820" y="310" fill="#9ed8d4" font-size="20">当前可赎回</text><text x="820" y="374" fill="#e8fffa" font-size="34" font-weight="700">preview + max</text><rect x="820" y="416" width="118" height="12" rx="6" fill="url(#bar)"/><text x="64" y="548" fill="#a0bdc5" font-size="19">教学算例 · 资产来源 → 份额变化 → 实际退出</text></g></svg>