<svg viewBox="0 0 1200 600" xmlns="http://www.w3.org/2000/svg" role="img" aria-label="代币经济学 主题配图">
  <defs>
    <radialGradient id="nodeGlow" cx="50%" cy="50%" r="50%">
      <stop offset="0%" stop-color="#82e0ca" stop-opacity="0.45"/>
      <stop offset="55%" stop-color="#82e0ca" stop-opacity="0.14"/>
      <stop offset="100%" stop-color="#82e0ca" stop-opacity="0"/>
    </radialGradient>
    <filter id="softGlow" x="-80%" y="-80%" width="260%" height="260%">
      <feGaussianBlur stdDeviation="10" result="b"/>
      <feMerge><feMergeNode in="b"/><feMergeNode in="SourceGraphic"/></feMerge>
    </filter>
    <pattern id="dots" width="26" height="26" patternUnits="userSpaceOnUse">
      <circle cx="1.2" cy="1.2" r="1.2" fill="#ffffff" fill-opacity="0.05"/>
    </pattern>
  </defs>

  <rect width="1200" height="600" fill="#0a0a0f"/>
  <rect width="1200" height="600" fill="url(#dots)"/>

  <g transform="translate(64,54)">
    <rect x="0" y="0" width="34" height="34" rx="9" fill="#82e0ca"/>
    <text x="17" y="23" font-family="'Segoe UI',Arial,sans-serif" font-size="15" font-weight="700" fill="#0a0a0f" text-anchor="middle">研</text>
    <text x="44" y="22" font-family="'Segoe UI',Arial,sans-serif" font-size="13" font-weight="600" fill="#7f8aa3">加密货币研究</text>
  </g>

  <text x="64" y="128" font-family="'Consolas','Segoe UI',monospace" font-size="18" letter-spacing="2" fill="#82e0ca">代币经济学</text>

  <g filter="url(#softGlow)">
    <circle cx="780" cy="300" r="150" fill="url(#nodeGlow)"/>
    <path d="M780 190 A110 110 0 0 1 884.6162167924668 266.0081306187558 L838.9655040102995 280.8409463487533 A62 62 0 0 0 780 238 Z" fill="#82e0ca" fill-opacity="0.85" stroke="#0a0a0f" stroke-width="2"/>
    <path d="M884.6162167924668 266.0081306187558 A110 110 0 0 1 691.0081306187558 364.65637775217203 L729.8409463487533 336.44268564213337 A62 62 0 0 0 838.9655040102995 280.8409463487533 Z" fill="#7f8aa3" fill-opacity="0.5" stroke="#0a0a0f" stroke-width="2"/>
    <path d="M691.0081306187558 364.65637775217203 A110 110 0 0 1 780 190 L780 238 A62 62 0 0 0 729.8409463487533 336.44268564213337 Z" fill="#4a5568" fill-opacity="0.5" stroke="#0a0a0f" stroke-width="2"/>

    <text x="780" y="296" font-family="'Segoe UI',Arial,sans-serif" font-size="13" font-weight="700" fill="#82e0ca" text-anchor="middle">代币</text>
    <text x="780" y="316" font-family="'Segoe UI',Arial,sans-serif" font-size="11" fill="#9fd4ea" text-anchor="middle">分配</text>
  </g>
    <g transform="translate(950,210)"><rect width="12" height="12" rx="3" fill="#82e0ca" fill-opacity="0.85"/><text x="20" y="10.5" font-family="'Segoe UI',Arial,sans-serif" font-size="13" fill="#c9d3e0">团队 20%</text></g>
    <g transform="translate(950,244)"><rect width="12" height="12" rx="3" fill="#7f8aa3" fill-opacity="0.5"/><text x="20" y="10.5" font-family="'Segoe UI',Arial,sans-serif" font-size="13" fill="#c9d3e0">社区 45%</text></g>
    <g transform="translate(950,278)"><rect width="12" height="12" rx="3" fill="#4a5568" fill-opacity="0.5"/><text x="20" y="10.5" font-family="'Segoe UI',Arial,sans-serif" font-size="13" fill="#c9d3e0">投资人 35%</text></g>


  <g font-family="'Segoe UI',Arial,sans-serif" font-weight="800">
    <text x="64" y="500" font-size="56" fill="#82e0ca">代币经济学</text>
  </g>
  <text x="64" y="536" font-family="'Segoe UI',Arial,sans-serif" font-size="18" fill="#7f8aa3">分配、解锁与真实流通核验方法</text>
</svg>
