<svg viewBox="0 0 1200 600" xmlns="http://www.w3.org/2000/svg" role="img" aria-label="Paying for Crypto Research Tool Subscriptions cover image">
  <defs>
    <linearGradient id="bg" x1="0" y1="0" x2="1" y2="1">
      <stop offset="0%" stop-color="#204a75"/>
      <stop offset="100%" stop-color="#0e2036"/>
    </linearGradient>
    <linearGradient id="cardFill" x1="0" y1="0" x2="1" y2="1">
      <stop offset="0%" stop-color="#e7edf5"/>
      <stop offset="100%" stop-color="#aebfd4"/>
    </linearGradient>
  </defs>

  <rect width="1200" height="600" fill="url(#bg)"/>

  <g transform="translate(64,56)">
    <rect x="0" y="0" width="40" height="40" rx="10" fill="#e8ad3f"/>
    <text x="20" y="27" font-family="'Segoe UI',Arial,sans-serif" font-size="18" font-weight="700" fill="#1b1b18" text-anchor="middle">R</text>
    <text x="52" y="17" font-family="'Segoe UI',Arial,sans-serif" font-size="15" font-weight="700" fill="#f3f6fb">Crypto Research Notes</text>
    <text x="52" y="35" font-family="'Segoe UI',Arial,sans-serif" font-size="12.5" fill="#a9bcd2">On-Chain Data &amp; Project Research</text>
  </g>

  <g transform="translate(64,148)">
    <rect x="0" y="0" width="94" height="36" rx="18" fill="#e8ad3f"/>
    <text x="47" y="24" font-family="'Segoe UI',Arial,sans-serif" font-size="14.5" font-weight="700" fill="#1b1b18" text-anchor="middle">Tools</text>
  </g>

  <g font-family="'Segoe UI',Arial,sans-serif" font-weight="700" fill="#f3f6fb">
    <text x="64" y="238" font-size="34">Paying for Research Tools:</text>
    <text x="64" y="290" font-size="34">Virtual Cards &amp; Stablecoins</text>
  </g>
  <text x="64" y="336" font-family="'Segoe UI',Arial,sans-serif" font-size="17" fill="#b9c9dd">Virtual Credit Cards · Stablecoin Top-Ups · Subscription Payments</text>

  <g transform="translate(662,232)">
    <circle r="45" fill="#0e2036" stroke="#e8ad3f" stroke-width="6"/>
    <text x="0" y="10" font-family="'Segoe UI',Arial,sans-serif" font-size="34" font-weight="700" fill="#ffffff" text-anchor="middle">$</text>
  </g>
  <line x1="700" y1="270" x2="762" y2="326" stroke="#e8ad3f" stroke-width="4" stroke-dasharray="2 10" stroke-linecap="round"/>

  <g transform="translate(762,260)">
    <rect x="0" y="0" width="300" height="170" rx="16" fill="url(#cardFill)"/>
    <rect x="26" y="34" width="46" height="34" rx="7" fill="#e8ad3f"/>
    <line x1="26" y1="108" x2="106" y2="108" stroke="#1b2a3d" stroke-width="5" stroke-dasharray="3 10" stroke-linecap="round"/>
    <line x1="126" y1="108" x2="206" y2="108" stroke="#1b2a3d" stroke-width="5" stroke-dasharray="3 10" stroke-linecap="round"/>
    <line x1="226" y1="108" x2="266" y2="108" stroke="#1b2a3d" stroke-width="5" stroke-dasharray="3 10" stroke-linecap="round"/>
    <circle cx="248" cy="140" r="18" fill="#e8ad3f" opacity="0.9"/>
    <circle cx="270" cy="140" r="18" fill="#c9862a" opacity="0.9"/>
  </g>
</svg>
