<svg viewBox="0 0 1200 600" xmlns="http://www.w3.org/2000/svg" role="img" aria-label="Verifying Swap ：What Costs Hide Behind the “Best … 主题配图">
  <defs>
    <radialGradient id="glowswaproutinen" cx="50%" cy="50%" r="50%">
      <stop offset="0%" stop-color="#e0b03f" stop-opacity="0.42"/>
      <stop offset="55%" stop-color="#e0b03f" stop-opacity="0.13"/>
      <stop offset="100%" stop-color="#e0b03f" stop-opacity="0"/>
    </radialGradient>
    <linearGradient id="barswaproutinen" x1="0" y1="1" x2="0" y2="0">
      <stop offset="0%" stop-color="#c98f2a" stop-opacity="0.95"/>
      <stop offset="100%" stop-color="#e0b03f" stop-opacity="0.95"/>
    </linearGradient>
    <filter id="softswaproutinen" x="-80%" y="-80%" width="260%" height="260%">
      <feGaussianBlur stdDeviation="9" result="b"/>
      <feMerge><feMergeNode in="b"/><feMergeNode in="SourceGraphic"/></feMerge>
    </filter>
    <pattern id="dotsswaproutinen" width="26" height="26" patternUnits="userSpaceOnUse">
      <circle cx="1.2" cy="1.2" r="1.2" fill="#ffffff" fill-opacity="0.05"/>
    </pattern>
  </defs>
  <rect width="1200" height="600" fill="#0a0a0f"/>
  <rect width="1200" height="600" fill="url(#dotsswaproutinen)"/>
  <g transform="translate(64,54)">
    <rect x="0" y="0" width="34" height="34" rx="9" fill="#e0b03f"/>
    <text x="17" y="23" font-family="'Segoe UI',Arial,sans-serif" font-size="15" font-weight="700" fill="#0a0a0f" text-anchor="middle">R</text>
    <text x="44" y="22" font-family="'Segoe UI',Arial,sans-serif" font-size="13" font-weight="600" fill="#7f8aa3">Crypto Research Notes</text>
  </g>
  <circle cx="900" cy="200" r="230" fill="url(#glowswaproutinen)"/>
  <g filter="url(#softswaproutinen)">
    <line x1="890" y1="90" x2="890" y2="300" stroke="#e0b03f" stroke-width="1.5" opacity="0.4" stroke-dasharray="3 4"/>
    <rect x="826" y="100" width="54" height="22" rx="3" fill="url(#barswaproutinen)" opacity="0.95"/><rect x="828" y="132" width="52" height="22" rx="3" fill="url(#barswaproutinen)" opacity="0.85"/><rect x="779" y="164" width="101" height="22" rx="3" fill="url(#barswaproutinen)" opacity="0.75"/><rect x="754" y="196" width="126" height="22" rx="3" fill="url(#barswaproutinen)" opacity="0.65"/><rect x="816" y="228" width="64" height="22" rx="3" fill="url(#barswaproutinen)" opacity="0.55"/><rect x="835" y="260" width="45" height="22" rx="3" fill="url(#barswaproutinen)" opacity="0.45"/><rect x="900" y="100" width="60" height="22" rx="3" fill="#4a4054" opacity="0.90"/><rect x="900" y="132" width="80" height="22" rx="3" fill="#4a4054" opacity="0.80"/><rect x="900" y="164" width="79" height="22" rx="3" fill="#4a4054" opacity="0.70"/><rect x="900" y="196" width="103" height="22" rx="3" fill="#4a4054" opacity="0.60"/><rect x="900" y="228" width="90" height="22" rx="3" fill="#4a4054" opacity="0.50"/><rect x="900" y="260" width="52" height="22" rx="3" fill="#4a4054" opacity="0.40"/>
  </g>
  <g font-family="'Segoe UI',Arial,sans-serif" font-weight="800">
    <text font-size="44" fill="#e0b03f"><tspan x="64" y="480">Verifying Swap</tspan></text>
  </g>
  <text x="64" y="516" font-family="'Segoe UI',Arial,sans-serif" font-size="18" fill="#7f8aa3">What Costs Hide Behind the “Best …</text>
</svg>
