<svg viewBox="0 0 1200 600" xmlns="http://www.w3.org/2000/svg" role="img" aria-label="智能合约安全与审计报告研究入门 主题配图">
  <defs>
    <linearGradient id="bg" x1="0" y1="0" x2="1" y2="1">
      <stop offset="0%" stop-color="#204a75"/>
      <stop offset="100%" stop-color="#0e2036"/>
    </linearGradient>
  </defs>

  <rect width="1200" height="600" fill="url(#bg)"/>

  <g transform="translate(64,56)">
    <rect x="0" y="0" width="40" height="40" rx="10" fill="#e8ad3f"/>
    <text x="20" y="27" font-family="'Segoe UI',Arial,sans-serif" font-size="18" font-weight="700" fill="#1b1b18" text-anchor="middle">研</text>
    <text x="52" y="17" font-family="'Segoe UI',Arial,sans-serif" font-size="15" font-weight="700" fill="#f3f6fb">加密货币研究笔记</text>
    <text x="52" y="35" font-family="'Segoe UI',Arial,sans-serif" font-size="12.5" fill="#a9bcd2">链上数据与项目研究</text>
  </g>

  <g transform="translate(64,148)">
    <rect x="0" y="0" width="112" height="36" rx="18" fill="#e8ad3f"/>
    <text x="56" y="24" font-family="'Segoe UI',Arial,sans-serif" font-size="14.5" font-weight="700" fill="#1b1b18" text-anchor="middle">合约安全</text>
  </g>

  <g font-family="'Segoe UI',Arial,sans-serif" font-weight="700" fill="#f3f6fb">
    <text x="64" y="238" font-size="34">审计报告、权限风险与</text>
    <text x="64" y="290" font-size="34">多签时间锁链上验证</text>
  </g>
  <text x="64" y="336" font-family="'Segoe UI',Arial,sans-serif" font-size="17" fill="#b9c9dd">审计报告阅读 · 合约权限 · 多签与时间锁核实</text>

  <g transform="translate(1000,300)">
    <path d="M0,-120 L96,-72 L96,20 C96,90 50,140 0,168 C-50,140 -96,90 -96,20 L-96,-72 Z" fill="#16324f" stroke="#5b8fc4" stroke-width="6"/>
    <path d="M0,-98 L78,-58 L78,18 C78,74 42,114 0,138 C-42,114 -78,74 -78,18 L-78,-58 Z" fill="none" stroke="#e8ad3f" stroke-width="3" opacity="0.55"/>
    <g transform="translate(0,4)">
      <rect x="-30" y="-6" width="60" height="46" rx="8" fill="#e8ad3f"/>
      <path d="M-18,-6 L-18,-26 C-18,-44 18,-44 18,-26 L18,-6" fill="none" stroke="#e8ad3f" stroke-width="9"/>
      <circle cx="0" cy="16" r="7" fill="#1b2a3d"/>
      <rect x="-3.5" y="16" width="7" height="16" rx="3" fill="#1b2a3d"/>
    </g>
  </g>

  <g transform="translate(895,455)" font-family="'Segoe UI',Arial,sans-serif" font-size="13" fill="#c9d6e6">
    <g transform="translate(0,0)"><rect width="12" height="12" rx="3" fill="#e8ad3f"/><text x="18" y="10.5">审计报告</text></g>
    <g transform="translate(100,0)"><rect width="12" height="12" rx="3" fill="#5b8fc4"/><text x="18" y="10.5">多签钱包</text></g>
    <g transform="translate(200,0)"><rect width="12" height="12" rx="3" fill="#7fc4a8"/><text x="18" y="10.5">时间锁</text></g>
  </g>
</svg>
