<svg viewBox="0 0 1200 600" xmlns="http://www.w3.org/2000/svg" role="img" aria-label="NFT Collection Research cover image">
  <defs>
    <radialGradient id="nodeGlow" cx="50%" cy="50%" r="50%">
      <stop offset="0%" stop-color="#f78bb3" stop-opacity="0.45"/>
      <stop offset="55%" stop-color="#f78bb3" stop-opacity="0.14"/>
      <stop offset="100%" stop-color="#f78bb3" stop-opacity="0"/>
    </radialGradient>
    <filter id="softGlow" x="-80%" y="-80%" width="260%" height="260%">
      <feGaussianBlur stdDeviation="10" result="b"/>
      <feMerge><feMergeNode in="b"/><feMergeNode in="SourceGraphic"/></feMerge>
    </filter>
    <pattern id="dots" width="26" height="26" patternUnits="userSpaceOnUse">
      <circle cx="1.2" cy="1.2" r="1.2" fill="#ffffff" fill-opacity="0.05"/>
    </pattern>
  </defs>
  <rect width="1200" height="600" fill="#0a0a0f"/>
  <rect width="1200" height="600" fill="url(#dots)"/>
  <g transform="translate(64,54)">
    <rect x="0" y="0" width="34" height="34" rx="9" fill="#f78bb3"/>
    <text x="17" y="23" font-family="'Segoe UI',Arial,sans-serif" font-size="15" font-weight="700" fill="#0a0a0f" text-anchor="middle">R</text>
    <text x="44" y="22" font-family="'Segoe UI',Arial,sans-serif" font-size="13" font-weight="600" fill="#7f8aa3">Crypto Research Notes</text>
  </g>
  <text x="64" y="128" font-family="'Consolas','Segoe UI',monospace" font-size="18" letter-spacing="2" fill="#f78bb3">NFT RESEARCH</text>
  <g filter="url(#softGlow)">
    <circle cx="780" cy="300" r="150" fill="url(#nodeGlow)"/>
    <path d="M780 190 A110 110 0 1 1 715.343622247828 388.9918693812442 L743.5573143578666 350.1590536512467 A62 62 0 1 0 780 238 Z" fill="#f78bb3" fill-opacity="0.85" stroke="#0a0a0f" stroke-width="2"/>
    <path d="M715.343622247828 388.9918693812442 A110 110 0 0 1 715.343622247828 211.00813061875579 L743.5573143578666 249.84094634875328 A62 62 0 0 0 743.5573143578666 350.1590536512467 Z" fill="#7f8aa3" fill-opacity="0.5" stroke="#0a0a0f" stroke-width="2"/>
    <path d="M715.343622247828 211.00813061875579 A110 110 0 0 1 780 190 L780 238 A62 62 0 0 0 743.5573143578666 249.84094634875328 Z" fill="#4a5568" fill-opacity="0.5" stroke="#0a0a0f" stroke-width="2"/>

    <text x="780" y="296" font-family="'Segoe UI',Arial,sans-serif" font-size="13" font-weight="700" fill="#f78bb3" text-anchor="middle">Rarity</text>
    <text x="780" y="316" font-family="'Segoe UI',Arial,sans-serif" font-size="11" fill="#9fd4ea" text-anchor="middle">Distribution</text>
  </g>
    <g transform="translate(950,210)"><rect width="12" height="12" rx="3" fill="#f78bb3" fill-opacity="0.85"/><text x="20" y="10.5" font-family="'Segoe UI',Arial,sans-serif" font-size="13" fill="#c9d3e0">Common 60%</text></g>
    <g transform="translate(950,244)"><rect width="12" height="12" rx="3" fill="#7f8aa3" fill-opacity="0.5"/><text x="20" y="10.5" font-family="'Segoe UI',Arial,sans-serif" font-size="13" fill="#c9d3e0">Rare 30%</text></g>
    <g transform="translate(950,278)"><rect width="12" height="12" rx="3" fill="#4a5568" fill-opacity="0.5"/><text x="20" y="10.5" font-family="'Segoe UI',Arial,sans-serif" font-size="13" fill="#c9d3e0">Epic 10%</text></g>

  <g font-family="'Segoe UI',Arial,sans-serif" font-weight="800">
    <text x="64" y="500" font-size="42" fill="#f78bb3">NFT Research</text>
  </g>
  <text x="64" y="536" font-family="'Segoe UI',Arial,sans-serif" font-size="18" fill="#7f8aa3">Rarity, wash trading, and floor-price depth</text>
</svg>
