<svg viewBox="0 0 1200 600" xmlns="http://www.w3.org/2000/svg" role="img" aria-label="Stablecoins, Cross-Chain Bridges, and On-Chain Fund Flows cover image">
  <defs>
    <linearGradient id="bg" x1="0" y1="0" x2="1" y2="1">
      <stop offset="0%" stop-color="#204a75"/>
      <stop offset="100%" stop-color="#0e2036"/>
    </linearGradient>
  </defs>

  <rect width="1200" height="600" fill="url(#bg)"/>

  <g transform="translate(64,56)">
    <rect x="0" y="0" width="40" height="40" rx="10" fill="#e8ad3f"/>
    <text x="20" y="27" font-family="'Segoe UI',Arial,sans-serif" font-size="18" font-weight="700" fill="#1b1b18" text-anchor="middle">R</text>
    <text x="52" y="17" font-family="'Segoe UI',Arial,sans-serif" font-size="15" font-weight="700" fill="#f3f6fb">Crypto Research Notes</text>
    <text x="52" y="35" font-family="'Segoe UI',Arial,sans-serif" font-size="12.5" fill="#a9bcd2">On-Chain Data &amp; Project Research</text>
  </g>

  <g transform="translate(64,148)">
    <rect x="0" y="0" width="140" height="36" rx="18" fill="#e8ad3f"/>
    <text x="70" y="24" font-family="'Segoe UI',Arial,sans-serif" font-size="14.5" font-weight="700" fill="#1b1b18" text-anchor="middle">Fund Flows</text>
  </g>

  <g font-family="'Segoe UI',Arial,sans-serif" font-weight="700" fill="#f3f6fb">
    <text x="64" y="238" font-size="30">Stablecoins, Cross-Chain</text>
    <text x="64" y="290" font-size="30">Bridges &amp; Fund Flow Signals</text>
  </g>
  <text x="64" y="336" font-family="'Segoe UI',Arial,sans-serif" font-size="17" fill="#b9c9dd">Stablecoin Landscape · Cross-Chain Bridges · Fund Migration</text>

  <g stroke="#e8ad3f" stroke-width="4" stroke-dasharray="2 10" stroke-linecap="round">
    <line x1="772" y1="252" x2="1064" y2="252"/>
    <line x1="772" y1="252" x2="918" y2="424"/>
    <line x1="1064" y1="252" x2="918" y2="424"/>
  </g>
  <g fill="#e8ad3f">
    <circle cx="918" cy="252" r="6"/>
    <circle cx="845" cy="338" r="6"/>
    <circle cx="991" cy="338" r="6"/>
  </g>
  <g>
    <circle cx="772" cy="252" r="50" fill="#0e2036" stroke="#c9d6e6" stroke-width="6"/>
    <circle cx="772" cy="252" r="10" fill="#e8ad3f"/>
    <circle cx="1064" cy="252" r="50" fill="#0e2036" stroke="#c9d6e6" stroke-width="6"/>
    <circle cx="1064" cy="252" r="10" fill="#e8ad3f"/>
    <circle cx="918" cy="424" r="50" fill="#0e2036" stroke="#c9d6e6" stroke-width="6"/>
    <circle cx="918" cy="424" r="10" fill="#e8ad3f"/>
  </g>
</svg>
