<svg viewBox="0 0 1200 600" xmlns="http://www.w3.org/2000/svg" role="img" aria-label="Liquid Staking Tokens Research cover image">
  <defs>
    <radialGradient id="nodeGlow" cx="50%" cy="50%" r="50%">
      <stop offset="0%" stop-color="#9db4c9" stop-opacity="0.45"/>
      <stop offset="55%" stop-color="#9db4c9" stop-opacity="0.14"/>
      <stop offset="100%" stop-color="#9db4c9" stop-opacity="0"/>
    </radialGradient>
    <filter id="softGlow" x="-80%" y="-80%" width="260%" height="260%">
      <feGaussianBlur stdDeviation="10" result="b"/>
      <feMerge><feMergeNode in="b"/><feMergeNode in="SourceGraphic"/></feMerge>
    </filter>
    <pattern id="dots" width="26" height="26" patternUnits="userSpaceOnUse">
      <circle cx="1.2" cy="1.2" r="1.2" fill="#ffffff" fill-opacity="0.05"/>
    </pattern>
  </defs>
  <rect width="1200" height="600" fill="#0a0a0f"/>
  <rect width="1200" height="600" fill="url(#dots)"/>
  <g transform="translate(64,54)">
    <rect x="0" y="0" width="34" height="34" rx="9" fill="#9db4c9"/>
    <text x="17" y="23" font-family="'Segoe UI',Arial,sans-serif" font-size="15" font-weight="700" fill="#0a0a0f" text-anchor="middle">L</text>
    <text x="44" y="22" font-family="'Segoe UI',Arial,sans-serif" font-size="13" font-weight="600" fill="#7f8aa3">Crypto Research Notes</text>
  </g>
  <text x="64" y="128" font-family="'Consolas','Segoe UI',monospace" font-size="18" letter-spacing="2" fill="#9db4c9">LIQUID STAKING</text>
  <g transform="translate(700,300)" filter="url(#softGlow)">
    <circle r="150" fill="url(#nodeGlow)"/>
    <circle cx="-170" cy="0" r="46" fill="#111820" stroke="#9db4c9" stroke-width="2.5"/>
    <circle cx="170" cy="0" r="46" fill="#111820" stroke="#9db4c9" stroke-width="2.5"/>
    <line x1="-124" y1="0" x2="124" y2="0" stroke="#9db4c9" stroke-width="2.5" stroke-dasharray="2 8" opacity="0.9"/>
    <path d="M100 -6 l24 6 l-24 6 z" fill="#9db4c9"/>
    <circle r="30" fill="#0e1420" stroke="#9db4c9" stroke-width="2.5"/>
    <path d="M-8 -2 a8 8 0 0 1 16 0 v4 h-16 z" fill="none" stroke="#9db4c9" stroke-width="2"/>
    <circle cy="6" r="2.4" fill="#9db4c9"/>
    <line x1="0" y1="6" x2="0" y2="12" stroke="#9db4c9" stroke-width="2" stroke-linecap="round"/>
    <text x="-170" y="72" font-family="'Segoe UI',Arial,sans-serif" font-size="13" fill="#9aa7bd" text-anchor="middle">LST Token</text>
    <text x="170" y="72" font-family="'Segoe UI',Arial,sans-serif" font-size="13" fill="#9aa7bd" text-anchor="middle">Validator Pool</text>
    <text y="52" font-family="'Segoe UI',Arial,sans-serif" font-size="12" fill="#9db4c9" text-anchor="middle">Redemption queue</text>
  </g>
  <g font-family="'Segoe UI',Arial,sans-serif" font-weight="800">
    <text x="64" y="500" font-size="40" fill="#9db4c9">Liquid Staking Tokens</text>
  </g>
  <text x="64" y="536" font-family="'Segoe UI',Arial,sans-serif" font-size="18" fill="#7f8aa3">Price is not always 1:1</text>
</svg>
