<svg viewBox="0 0 1200 600" xmlns="http://www.w3.org/2000/svg" role="img" aria-label="Getting Started with Crypto Project Research cover image">
  <defs>
    <linearGradient id="bg" x1="0" y1="0" x2="1" y2="1">
      <stop offset="0%" stop-color="#204a75"/>
      <stop offset="100%" stop-color="#0e2036"/>
    </linearGradient>
  </defs>

  <rect width="1200" height="600" fill="url(#bg)"/>

  <g transform="translate(64,56)">
    <rect x="0" y="0" width="40" height="40" rx="10" fill="#e8ad3f"/>
    <text x="20" y="27" font-family="'Segoe UI',Arial,sans-serif" font-size="18" font-weight="700" fill="#1b1b18" text-anchor="middle">R</text>
    <text x="52" y="17" font-family="'Segoe UI',Arial,sans-serif" font-size="15" font-weight="700" fill="#f3f6fb">Crypto Research Notes</text>
    <text x="52" y="35" font-family="'Segoe UI',Arial,sans-serif" font-size="12.5" fill="#a9bcd2">On-Chain Data &amp; Project Research</text>
  </g>

  <g transform="translate(64,148)">
    <rect x="0" y="0" width="150" height="36" rx="18" fill="#e8ad3f"/>
    <text x="75" y="24" font-family="'Segoe UI',Arial,sans-serif" font-size="14.5" font-weight="700" fill="#1b1b18" text-anchor="middle">Methodology</text>
  </g>

  <g font-family="'Segoe UI',Arial,sans-serif" font-weight="700" fill="#f3f6fb">
    <text x="64" y="238" font-size="34">From Whitepaper &amp; Tokenomics</text>
    <text x="64" y="290" font-size="34">to On-Chain Data</text>
  </g>
  <text x="64" y="336" font-family="'Segoe UI',Arial,sans-serif" font-size="17" fill="#b9c9dd">Information Sources · Fundamentals · Risk Checklist</text>

  <g transform="translate(724,218)" stroke="#5b8fc4" stroke-width="4" fill="none">
    <rect x="0" y="0" width="30" height="30" rx="7"/>
    <path d="M6 15 L13 22 L25 7" stroke="#e8ad3f" stroke-width="4.5" stroke-linecap="round" stroke-linejoin="round"/>
  </g>
  <line x1="770" y1="233" x2="880" y2="233" stroke="#5b8fc4" stroke-width="5" stroke-linecap="round"/>

  <g transform="translate(724,278)" stroke="#5b8fc4" stroke-width="4" fill="none">
    <rect x="0" y="0" width="30" height="30" rx="7"/>
    <path d="M6 15 L13 22 L25 7" stroke="#e8ad3f" stroke-width="4.5" stroke-linecap="round" stroke-linejoin="round"/>
  </g>
  <line x1="770" y1="293" x2="880" y2="293" stroke="#5b8fc4" stroke-width="5" stroke-linecap="round"/>

  <g transform="translate(724,338)" stroke="#5b8fc4" stroke-width="4" fill="none">
    <rect x="0" y="0" width="30" height="30" rx="7"/>
    <path d="M6 15 L13 22 L25 7" stroke="#e8ad3f" stroke-width="4.5" stroke-linecap="round" stroke-linejoin="round"/>
  </g>
  <line x1="770" y1="353" x2="880" y2="353" stroke="#5b8fc4" stroke-width="5" stroke-linecap="round"/>

  <g transform="translate(1010,300)">
    <circle r="90" fill="none" stroke="#e8ad3f" stroke-width="16"/>
    <line x1="60" y1="60" x2="112" y2="112" stroke="#e8ad3f" stroke-width="20" stroke-linecap="round"/>
  </g>
</svg>
