<svg viewBox="0 0 1200 600" xmlns="http://www.w3.org/2000/svg" role="img" aria-label="RWA Tokenization Research cover image">
  <defs>
    <radialGradient id="nodeGlow" cx="50%" cy="50%" r="50%">
      <stop offset="0%" stop-color="#a8c9a0" stop-opacity="0.45"/>
      <stop offset="55%" stop-color="#a8c9a0" stop-opacity="0.14"/>
      <stop offset="100%" stop-color="#a8c9a0" stop-opacity="0"/>
    </radialGradient>
    <filter id="softGlow" x="-80%" y="-80%" width="260%" height="260%">
      <feGaussianBlur stdDeviation="10" result="b"/>
      <feMerge><feMergeNode in="b"/><feMergeNode in="SourceGraphic"/></feMerge>
    </filter>
    <pattern id="dots" width="26" height="26" patternUnits="userSpaceOnUse">
      <circle cx="1.2" cy="1.2" r="1.2" fill="#ffffff" fill-opacity="0.05"/>
    </pattern>
  </defs>
  <rect width="1200" height="600" fill="#0a0a0f"/>
  <rect width="1200" height="600" fill="url(#dots)"/>
  <g transform="translate(64,54)">
    <rect x="0" y="0" width="34" height="34" rx="9" fill="#a8c9a0"/>
    <text x="17" y="23" font-family="'Segoe UI',Arial,sans-serif" font-size="15" font-weight="700" fill="#0a0a0f" text-anchor="middle">R</text>
    <text x="44" y="22" font-family="'Segoe UI',Arial,sans-serif" font-size="13" font-weight="600" fill="#7f8aa3">Crypto Research Notes</text>
  </g>
  <text x="64" y="128" font-family="'Consolas','Segoe UI',monospace" font-size="18" letter-spacing="2" fill="#a8c9a0">RWA</text>
  <g transform="translate(700,300)" filter="url(#softGlow)">
    <circle r="150" fill="url(#nodeGlow)"/>
    <circle cx="-170" cy="0" r="46" fill="#111820" stroke="#a8c9a0" stroke-width="2.5"/>
    <circle cx="170" cy="0" r="46" fill="#111820" stroke="#a8c9a0" stroke-width="2.5"/>
    <line x1="-124" y1="0" x2="124" y2="0" stroke="#a8c9a0" stroke-width="2.5" stroke-dasharray="2 8" opacity="0.9"/>
    <path d="M100 -6 l24 6 l-24 6 z" fill="#a8c9a0"/>
    <circle r="30" fill="#0e1420" stroke="#a8c9a0" stroke-width="2.5"/>
    <path d="M-11 4 h22 v11 a11 11 0 0 1 -22 0 z" fill="none" stroke="#a8c9a0" stroke-width="2"/>
    <path d="M-7 4 v-5 a7 7 0 0 1 14 0 v5" fill="none" stroke="#a8c9a0" stroke-width="2"/>
    <text x="-170" y="72" font-family="'Segoe UI',Arial,sans-serif" font-size="13" fill="#9aa7bd" text-anchor="middle">On-Chain Token</text>
    <text x="170" y="72" font-family="'Segoe UI',Arial,sans-serif" font-size="13" fill="#9aa7bd" text-anchor="middle">Off-Chain Asset</text>
    <text y="52" font-family="'Segoe UI',Arial,sans-serif" font-size="12" fill="#a8c9a0" text-anchor="middle">Pointer relationship</text>
  </g>
  <g font-family="'Segoe UI',Arial,sans-serif" font-weight="800">
    <text x="64" y="500" font-size="42" fill="#a8c9a0">RWA Tokenization</text>
  </g>
  <text x="64" y="536" font-family="'Segoe UI',Arial,sans-serif" font-size="18" fill="#7f8aa3">The token is just a pointer</text>
</svg>
