<svg viewBox="0 0 1200 600" xmlns="http://www.w3.org/2000/svg" role="img" aria-label="自动减仓机制研究方法 主题配图">
  <defs>
    <radialGradient id="nodeGlow" cx="50%" cy="50%" r="50%">
      <stop offset="0%" stop-color="#d19fd6" stop-opacity="0.45"/>
      <stop offset="55%" stop-color="#d19fd6" stop-opacity="0.14"/>
      <stop offset="100%" stop-color="#d19fd6" stop-opacity="0"/>
    </radialGradient>
    <filter id="softGlow" x="-80%" y="-80%" width="260%" height="260%">
      <feGaussianBlur stdDeviation="10" result="b"/>
      <feMerge><feMergeNode in="b"/><feMergeNode in="SourceGraphic"/></feMerge>
    </filter>
    <pattern id="dots" width="26" height="26" patternUnits="userSpaceOnUse">
      <circle cx="1.2" cy="1.2" r="1.2" fill="#ffffff" fill-opacity="0.05"/>
    </pattern>
  </defs>
  <rect width="1200" height="600" fill="#0a0a0f"/>
  <rect width="1200" height="600" fill="url(#dots)"/>
  <g transform="translate(64,54)">
    <rect x="0" y="0" width="34" height="34" rx="9" fill="#d19fd6"/>
    <text x="17" y="23" font-family="'Segoe UI',Arial,sans-serif" font-size="15" font-weight="700" fill="#0a0a0f" text-anchor="middle">研</text>
    <text x="44" y="22" font-family="'Segoe UI',Arial,sans-serif" font-size="13" font-weight="600" fill="#7f8aa3">加密货币研究</text>
  </g>
  <text x="64" y="128" font-family="'Consolas','Segoe UI',monospace" font-size="18" letter-spacing="2" fill="#d19fd6">自动减仓机制</text>
  <g transform="translate(700,190)" filter="url(#softGlow)">
    <circle r="170" cy="110" fill="url(#nodeGlow)"/>
    <rect x="-190" y="0" width="150" height="44" rx="10" fill="#111820" stroke="#d19fd6" stroke-width="2"/>
    <text x="-115" y="27" font-family="'Segoe UI',Arial,sans-serif" font-size="13" fill="#c9d3e0" text-anchor="middle">市场清算</text>
    <path d="M-115 44 L-45 84" stroke="#d19fd6" stroke-width="2" stroke-dasharray="2 6" opacity="0.85"/>
    <path d="M-52 78 l10 10 l10 -16" fill="none" stroke="#d19fd6" stroke-width="2" stroke-linecap="round" stroke-linejoin="round"/>
    <rect x="-95" y="90" width="150" height="44" rx="10" fill="#111820" stroke="#d19fd6" stroke-width="2"/>
    <text x="-20" y="117" font-family="'Segoe UI',Arial,sans-serif" font-size="13" fill="#c9d3e0" text-anchor="middle">保险基金</text>
    <path d="M-20 134 L50 174" stroke="#d19fd6" stroke-width="2" stroke-dasharray="2 6" opacity="0.85"/>
    <path d="M43 168 l10 10 l10 -16" fill="none" stroke="#d19fd6" stroke-width="2" stroke-linecap="round" stroke-linejoin="round"/>
    <rect x="0" y="180" width="150" height="48" rx="10" fill="#241017" stroke="#d19fd6" stroke-width="2.5"/>
    <circle cx="16" cy="204" r="9" fill="#d19fd6"/>
    <text x="16" y="209" font-family="'Segoe UI',Arial,sans-serif" font-size="11" font-weight="800" fill="#0a0a0f" text-anchor="middle">!</text>
    <text x="85" y="208" font-family="'Segoe UI',Arial,sans-serif" font-size="13" font-weight="700" fill="#d19fd6" text-anchor="middle">ADL强制平仓</text>
  </g>
  <g font-family="'Segoe UI',Arial,sans-serif" font-weight="800">
    <text x="64" y="500" font-size="56" fill="#d19fd6">自动减仓机制</text>
  </g>
  <text x="64" y="536" font-family="'Segoe UI',Arial,sans-serif" font-size="18" fill="#7f8aa3">保险基金见底后，谁的仓位被平掉</text>
</svg>
