<svg viewBox="0 0 1200 600" xmlns="http://www.w3.org/2000/svg" role="img" aria-label="DAO Governance Research 101 cover image">
  <defs>
    <linearGradient id="bg" x1="0" y1="0" x2="1" y2="1">
      <stop offset="0%" stop-color="#204a75"/>
      <stop offset="100%" stop-color="#0e2036"/>
    </linearGradient>
  </defs>

  <rect width="1200" height="600" fill="url(#bg)"/>

  <g transform="translate(64,56)">
    <rect x="0" y="0" width="40" height="40" rx="10" fill="#e8ad3f"/>
    <text x="20" y="27" font-family="'Segoe UI',Arial,sans-serif" font-size="18" font-weight="700" fill="#1b1b18" text-anchor="middle">R</text>
    <text x="52" y="17" font-family="'Segoe UI',Arial,sans-serif" font-size="15" font-weight="700" fill="#f3f6fb">Crypto Research Notes</text>
    <text x="52" y="35" font-family="'Segoe UI',Arial,sans-serif" font-size="12.5" fill="#a9bcd2">On-Chain Data &amp; Project Research</text>
  </g>

  <g transform="translate(64,148)">
    <rect x="0" y="0" width="150" height="36" rx="18" fill="#e8ad3f"/>
    <text x="75" y="24" font-family="'Segoe UI',Arial,sans-serif" font-size="14.5" font-weight="700" fill="#1b1b18" text-anchor="middle">Governance</text>
  </g>

  <g font-family="'Segoe UI',Arial,sans-serif" font-weight="700" fill="#f3f6fb">
    <text x="64" y="238" font-size="30">Proposal Lifecycle, Voting</text>
    <text x="64" y="290" font-size="30">Power &amp; Treasury Checks</text>
  </g>
  <text x="64" y="336" font-family="'Segoe UI',Arial,sans-serif" font-size="17" fill="#b9c9dd">Proposal Flow · Voting Power · Treasury Multisig &amp; Timelock</text>

  <g transform="translate(880,220)">
    <path d="M0,0 L180,0 L210,60 L-30,60 Z" fill="#16324f" stroke="#5b8fc4" stroke-width="5"/>
    <rect x="-40" y="60" width="260" height="150" rx="10" fill="#16324f" stroke="#5b8fc4" stroke-width="5"/>
    <rect x="60" y="20" width="60" height="14" rx="4" fill="#0e2036"/>
    <g transform="translate(90,27)">
      <path d="M-14,0 L-4,10 L16,-14" fill="none" stroke="#e8ad3f" stroke-width="5" stroke-linecap="round" stroke-linejoin="round"/>
    </g>
    <g font-family="'Segoe UI',Arial,sans-serif" font-size="12" fill="#c9d6e6">
      <rect x="-16" y="92" width="234" height="14" rx="7" fill="#1c3654"/>
      <rect x="-16" y="92" width="160" height="14" rx="7" fill="#e8ad3f"/>
      <text x="-16" y="126" fill="#9fb3cb" font-size="11">QUORUM</text>
      <rect x="-16" y="140" width="234" height="14" rx="7" fill="#1c3654"/>
      <rect x="-16" y="140" width="95" height="14" rx="7" fill="#7fc4a8"/>
      <text x="-16" y="174" fill="#9fb3cb" font-size="11">FOR / AGAINST</text>
    </g>
  </g>

  <g transform="translate(910,470)" font-family="'Segoe UI',Arial,sans-serif" font-size="13" fill="#c9d6e6">
    <g transform="translate(0,0)"><rect width="12" height="12" rx="3" fill="#e8ad3f"/><text x="18" y="10.5">Proposal</text></g>
    <g transform="translate(100,0)"><rect width="12" height="12" rx="3" fill="#5b8fc4"/><text x="18" y="10.5">Voting</text></g>
    <g transform="translate(190,0)"><rect width="12" height="12" rx="3" fill="#7fc4a8"/><text x="18" y="10.5">Treasury</text></g>
  </g>
</svg>
