<svg viewBox="0 0 1200 600" xmlns="http://www.w3.org/2000/svg" role="img" aria-label="Tokenomics Research 101 cover image">
  <defs>
    <linearGradient id="bg" x1="0" y1="0" x2="1" y2="1">
      <stop offset="0%" stop-color="#204a75"/>
      <stop offset="100%" stop-color="#0e2036"/>
    </linearGradient>
    <linearGradient id="ringShadow" x1="0" y1="0" x2="1" y2="1">
      <stop offset="0%" stop-color="#000000" stop-opacity="0.18"/>
      <stop offset="100%" stop-color="#000000" stop-opacity="0"/>
    </linearGradient>
  </defs>

  <rect width="1200" height="600" fill="url(#bg)"/>

  <g fill="#ffffff" opacity="0.06">
    <circle cx="60" cy="520" r="2.5"/><circle cx="100" cy="520" r="2.5"/><circle cx="140" cy="520" r="2.5"/>
    <circle cx="60" cy="560" r="2.5"/><circle cx="100" cy="560" r="2.5"/><circle cx="140" cy="560" r="2.5"/>
    <circle cx="1120" cy="60" r="2.5"/><circle cx="1080" cy="60" r="2.5"/><circle cx="1040" cy="60" r="2.5"/>
  </g>

  <g transform="translate(64,56)">
    <rect x="0" y="0" width="40" height="40" rx="10" fill="#e8ad3f"/>
    <text x="20" y="27" font-family="'Segoe UI',Arial,sans-serif" font-size="18" font-weight="700" fill="#1b1b18" text-anchor="middle">R</text>
    <text x="52" y="17" font-family="'Segoe UI',Arial,sans-serif" font-size="15" font-weight="700" fill="#f3f6fb">Crypto Research Notes</text>
    <text x="52" y="35" font-family="'Segoe UI',Arial,sans-serif" font-size="12.5" fill="#a9bcd2">On-Chain Data &amp; Project Research</text>
  </g>

  <g transform="translate(64,148)">
    <rect x="0" y="0" width="150" height="36" rx="18" fill="#8a5a0b"/>
    <text x="75" y="24" font-family="'Segoe UI',Arial,sans-serif" font-size="14.5" font-weight="700" fill="#fbe9c8" text-anchor="middle">Tokenomics</text>
  </g>

  <g font-family="'Segoe UI',Arial,sans-serif" font-weight="700" fill="#f3f6fb">
    <text x="64" y="238" font-size="38">Allocation, Vesting &amp;</text>
    <text x="64" y="290" font-size="38">On-Chain Verification</text>
  </g>
  <text x="64" y="336" font-family="'Segoe UI',Arial,sans-serif" font-size="17" fill="#b9c9dd">Supply Structure · Vesting Schedules · Cross-Checking</text>

  <g transform="translate(940,300)">
    <circle cx="0" cy="30" r="150" fill="url(#ringShadow)"/>
    <g transform="rotate(-90)">
      <circle r="120" fill="none" stroke="#1c3654" stroke-width="34"/>
      <circle r="120" fill="none" stroke="#e8ad3f" stroke-width="34" stroke-dasharray="150 604" stroke-dashoffset="0" stroke-linecap="round"/>
      <circle r="120" fill="none" stroke="#5b8fc4" stroke-width="34" stroke-dasharray="180 604" stroke-dashoffset="-158" stroke-linecap="round"/>
      <circle r="120" fill="none" stroke="#7fc4a8" stroke-width="34" stroke-dasharray="110 604" stroke-dashoffset="-346" stroke-linecap="round"/>
      <circle r="120" fill="none" stroke="#c9d6e6" stroke-width="34" stroke-dasharray="90 604" stroke-dashoffset="-464" stroke-linecap="round"/>
    </g>
    <text x="0" y="-4" font-family="'Segoe UI',Arial,sans-serif" font-size="15" font-weight="700" fill="#f3f6fb" text-anchor="middle">Allocation</text>
    <text x="0" y="20" font-family="'Segoe UI',Arial,sans-serif" font-size="12" fill="#9fb3cb" text-anchor="middle">TOKEN ALLOCATION</text>
  </g>

  <g transform="translate(760,470)" font-family="'Segoe UI',Arial,sans-serif" font-size="13" fill="#c9d6e6">
    <g transform="translate(0,0)"><rect width="12" height="12" rx="3" fill="#e8ad3f"/><text x="18" y="10.5">Team &amp; Investors</text></g>
    <g transform="translate(150,0)"><rect width="12" height="12" rx="3" fill="#5b8fc4"/><text x="18" y="10.5">Ecosystem Fund</text></g>
    <g transform="translate(0,26)"><rect width="12" height="12" rx="3" fill="#7fc4a8"/><text x="18" y="10.5">Community &amp; Airdrops</text></g>
    <g transform="translate(150,26)"><rect width="12" height="12" rx="3" fill="#c9d6e6"/><text x="18" y="10.5">Liquidity Mining</text></g>
  </g>
</svg>
