<svg viewBox="0 0 1200 600" xmlns="http://www.w3.org/2000/svg" role="img" aria-label="交易所保险基金覆盖率核验：出现坏账时，那笔钱真的够赔吗 主题配图">
  <defs>
    <radialGradient id="glowinsurezh" cx="50%" cy="50%" r="50%">
      <stop offset="0%" stop-color="#9db4c9" stop-opacity="0.42"/>
      <stop offset="55%" stop-color="#9db4c9" stop-opacity="0.13"/>
      <stop offset="100%" stop-color="#9db4c9" stop-opacity="0"/>
    </radialGradient>
    <filter id="softinsurezh" x="-80%" y="-80%" width="260%" height="260%">
      <feGaussianBlur stdDeviation="9" result="b"/>
      <feMerge><feMergeNode in="b"/><feMergeNode in="SourceGraphic"/></feMerge>
    </filter>
    <pattern id="dotsinsurezh" width="26" height="26" patternUnits="userSpaceOnUse">
      <circle cx="1.2" cy="1.2" r="1.2" fill="#ffffff" fill-opacity="0.05"/>
    </pattern>
  </defs>
  <rect width="1200" height="600" fill="#0a0a0f"/>
  <rect width="1200" height="600" fill="url(#dotsinsurezh)"/>
  <g transform="translate(64,54)">
    <rect x="0" y="0" width="34" height="34" rx="9" fill="#9db4c9"/>
    <text x="17" y="23" font-family="'Segoe UI',Arial,sans-serif" font-size="15" font-weight="700" fill="#0a0a0f" text-anchor="middle">研</text>
    <text x="44" y="22" font-family="'Segoe UI',Arial,sans-serif" font-size="13" font-weight="600" fill="#7f8aa3">加密货币研究</text>
  </g>
  <circle cx="900" cy="210" r="230" fill="url(#glowinsurezh)"/>
  <g filter="url(#softinsurezh)">
    <path d="M900 90 L960 118 L960 210 C960 268 932 306 900 326 C868 306 840 268 840 210 L840 118 Z" fill="none" stroke="#9db4c9" stroke-width="5" stroke-linejoin="round"/>
    <path d="M872 210 L892 232 L932 182" fill="none" stroke="#9db4c9" stroke-width="6" stroke-linecap="round" stroke-linejoin="round"/>
    <path d="M660 300 L720 260 L780 280 L840 230" fill="none" stroke="#9db4c9" stroke-width="4" stroke-linecap="round" stroke-linejoin="round" opacity="0.5" stroke-dasharray="3 8"/>
    <circle cx="660" cy="300" r="6" fill="#9db4c9" opacity="0.5"/>
  </g>
  <g font-family="'Segoe UI',Arial,sans-serif" font-weight="800">
    <text font-size="46" fill="#9db4c9"><tspan x="64" y="470">交易所保险基金覆盖率核验</tspan></text>
  </g>
  <text x="64" y="506" font-family="'Segoe UI',Arial,sans-serif" font-size="17" fill="#7f8aa3">出现坏账时，那笔钱真的够赔吗</text>
</svg>
