<svg viewBox="0 0 1200 600" xmlns="http://www.w3.org/2000/svg" role="img" aria-label="Vote-Market Research cover image">
  <defs>
    <radialGradient id="nodeGlow" cx="50%" cy="50%" r="50%">
      <stop offset="0%" stop-color="#ffb066" stop-opacity="0.45"/>
      <stop offset="55%" stop-color="#ffb066" stop-opacity="0.14"/>
      <stop offset="100%" stop-color="#ffb066" stop-opacity="0"/>
    </radialGradient>
    <filter id="softGlow" x="-80%" y="-80%" width="260%" height="260%">
      <feGaussianBlur stdDeviation="10" result="b"/>
      <feMerge><feMergeNode in="b"/><feMergeNode in="SourceGraphic"/></feMerge>
    </filter>
    <pattern id="dots" width="26" height="26" patternUnits="userSpaceOnUse">
      <circle cx="1.2" cy="1.2" r="1.2" fill="#ffffff" fill-opacity="0.05"/>
    </pattern>
  </defs>
  <rect width="1200" height="600" fill="#0a0a0f"/>
  <rect width="1200" height="600" fill="url(#dots)"/>
  <g transform="translate(64,54)">
    <rect x="0" y="0" width="34" height="34" rx="9" fill="#ffb066"/>
    <text x="17" y="23" font-family="'Segoe UI',Arial,sans-serif" font-size="15" font-weight="700" fill="#0a0a0f" text-anchor="middle">R</text>
    <text x="44" y="22" font-family="'Segoe UI',Arial,sans-serif" font-size="13" font-weight="600" fill="#7f8aa3">Crypto Research Notes</text>
  </g>
  <text x="64" y="128" font-family="'Consolas','Segoe UI',monospace" font-size="18" letter-spacing="2" fill="#ffb066">VOTE MARKETS</text>
  <g filter="url(#softGlow)">
    <g transform="translate(300,190)">
      <rect x="0" y="-24" width="220" height="48" rx="11" fill="#0d1117" stroke="#ffb066" stroke-width="1.5" opacity="0.9"/>
      <circle cx="26" cy="0" r="7" fill="#ffb066"/>
      <text x="46" y="5" font-family="'Segoe UI',Arial,sans-serif" font-size="15" font-weight="600" fill="#c9d3e0">Briber A</text>
    </g>
    <g transform="translate(300,268)">
      <rect x="0" y="-24" width="220" height="48" rx="11" fill="#0d1117" stroke="#ffb066" stroke-width="1.5" opacity="0.9"/>
      <circle cx="26" cy="0" r="7" fill="#ffb066"/>
      <text x="46" y="5" font-family="'Segoe UI',Arial,sans-serif" font-size="15" font-weight="600" fill="#c9d3e0">Briber B</text>
    </g>
    <g transform="translate(300,346)">
      <rect x="0" y="-24" width="220" height="48" rx="11" fill="#0d1117" stroke="#ffb066" stroke-width="1.5" opacity="0.9"/>
      <circle cx="26" cy="0" r="7" fill="#ffb066"/>
      <text x="46" y="5" font-family="'Segoe UI',Arial,sans-serif" font-size="15" font-weight="600" fill="#c9d3e0">Briber C</text>
    </g>

    <path d="M520 190 C 680 190, 760 280, 850 300" fill="none" stroke="#ffb066" stroke-width="1.8" opacity="0.75"/>
    <path d="M520 268 C 680 268, 760 292, 850 300" fill="none" stroke="#ffb066" stroke-width="1.8" opacity="0.75"/>
    <path d="M520 346 C 680 346, 760 304, 850 300" fill="none" stroke="#ffb066" stroke-width="1.8" opacity="0.75"/>

    <circle cx="900" cy="300" r="130" fill="url(#nodeGlow)"/>
    <circle cx="900" cy="300" r="46" fill="#0e1420" stroke="#ffb066" stroke-width="2.5"/>
    <text x="900" y="296" font-family="'Segoe UI',Arial,sans-serif" font-size="14" font-weight="700" fill="#ffb066" text-anchor="middle">Locked</text>
    <text x="900" y="316" font-family="'Segoe UI',Arial,sans-serif" font-size="12" fill="#9fd4ea" text-anchor="middle">Vote Power</text>
  </g>
  <g font-family="'Segoe UI',Arial,sans-serif" font-weight="800">
    <text x="64" y="500" font-size="42" fill="#ffb066">Vote Markets</text>
  </g>
  <text x="64" y="536" font-family="'Segoe UI',Arial,sans-serif" font-size="18" fill="#7f8aa3">Verifying vote-locking and bribe ROI</text>
</svg>
