<svg viewBox="0 0 1200 600" xmlns="http://www.w3.org/2000/svg" role="img" aria-label="On-Chain Data Analysis for Beginners cover image">
  <defs>
    <linearGradient id="bg" x1="0" y1="0" x2="1" y2="1">
      <stop offset="0%" stop-color="#183a5c"/>
      <stop offset="100%" stop-color="#0e2036"/>
    </linearGradient>
  </defs>

  <rect width="1200" height="600" fill="url(#bg)"/>

  <g transform="translate(64,56)">
    <rect x="0" y="0" width="40" height="40" rx="10" fill="#e8ad3f"/>
    <text x="20" y="27" font-family="'Segoe UI',Arial,sans-serif" font-size="18" font-weight="700" fill="#1b1b18" text-anchor="middle">R</text>
    <text x="52" y="17" font-family="'Segoe UI',Arial,sans-serif" font-size="15" font-weight="700" fill="#f3f6fb">Crypto Research Notes</text>
    <text x="52" y="35" font-family="'Segoe UI',Arial,sans-serif" font-size="12.5" fill="#a9bcd2">On-Chain Data &amp; Project Research</text>
  </g>

  <g transform="translate(64,148)">
    <rect x="0" y="0" width="168" height="36" rx="18" fill="#e8ad3f"/>
    <text x="84" y="24" font-family="'Segoe UI',Arial,sans-serif" font-size="14.5" font-weight="700" fill="#1b1b18" text-anchor="middle">On-Chain Data</text>
  </g>

  <g font-family="'Segoe UI',Arial,sans-serif" font-weight="700" fill="#f3f6fb">
    <text x="64" y="238" font-size="30">Active Addresses, TVL, Holder</text>
    <text x="64" y="290" font-size="30">Distribution &amp; Fund Flows</text>
  </g>
  <text x="64" y="336" font-family="'Segoe UI',Arial,sans-serif" font-size="17" fill="#b9c9dd">Addresses · Transactions · Core Metrics</text>

  <g transform="translate(706,200)">
    <line x1="0" y1="0" x2="0" y2="210" stroke="#7f9ec2" stroke-width="2.5"/>
    <line x1="0" y1="210" x2="426" y2="210" stroke="#7f9ec2" stroke-width="2.5"/>
    <g fill="#3f6690" opacity="0.9">
      <rect x="20" y="120" width="46" height="90" rx="4"/>
      <rect x="90" y="70" width="46" height="140" rx="4"/>
      <rect x="160" y="150" width="46" height="60" rx="4"/>
      <rect x="230" y="46" width="46" height="164" rx="4"/>
      <rect x="300" y="96" width="46" height="114" rx="4"/>
      <rect x="370" y="18" width="46" height="192" rx="4"/>
    </g>
    <polyline points="43,120 113,68 183,148 253,44 323,94 393,16" fill="none" stroke="#e8ad3f" stroke-width="4.5" stroke-linecap="round" stroke-linejoin="round"/>
    <g fill="#e8ad3f">
      <circle cx="43" cy="120" r="6"/>
      <circle cx="113" cy="68" r="6"/>
      <circle cx="183" cy="148" r="6"/>
      <circle cx="253" cy="44" r="6"/>
      <circle cx="323" cy="94" r="6"/>
      <circle cx="393" cy="16" r="6"/>
    </g>
  </g>
</svg>
