<svg viewBox="0 0 1200 600" xmlns="http://www.w3.org/2000/svg" role="img" aria-label="Cross-Chain Bri：Assets Never Actually Cross — The… 主题配图">
  <defs>
    <radialGradient id="glowbridgesecuen" cx="50%" cy="50%" r="50%">
      <stop offset="0%" stop-color="#37e0c4" stop-opacity="0.42"/>
      <stop offset="55%" stop-color="#37e0c4" stop-opacity="0.13"/>
      <stop offset="100%" stop-color="#37e0c4" stop-opacity="0"/>
    </radialGradient>
    <linearGradient id="barbridgesecuen" x1="0" y1="1" x2="0" y2="0">
      <stop offset="0%" stop-color="#2fb6e0" stop-opacity="0.95"/>
      <stop offset="100%" stop-color="#37e0c4" stop-opacity="0.95"/>
    </linearGradient>
    <filter id="softbridgesecuen" x="-80%" y="-80%" width="260%" height="260%">
      <feGaussianBlur stdDeviation="9" result="b"/>
      <feMerge><feMergeNode in="b"/><feMergeNode in="SourceGraphic"/></feMerge>
    </filter>
    <pattern id="dotsbridgesecuen" width="26" height="26" patternUnits="userSpaceOnUse">
      <circle cx="1.2" cy="1.2" r="1.2" fill="#ffffff" fill-opacity="0.05"/>
    </pattern>
  </defs>
  <rect width="1200" height="600" fill="#0a0a0f"/>
  <rect width="1200" height="600" fill="url(#dotsbridgesecuen)"/>
  <g transform="translate(64,54)">
    <rect x="0" y="0" width="34" height="34" rx="9" fill="#37e0c4"/>
    <text x="17" y="23" font-family="'Segoe UI',Arial,sans-serif" font-size="15" font-weight="700" fill="#0a0a0f" text-anchor="middle">R</text>
    <text x="44" y="22" font-family="'Segoe UI',Arial,sans-serif" font-size="13" font-weight="600" fill="#7f8aa3">Crypto Research Notes</text>
  </g>
  <circle cx="900" cy="200" r="230" fill="url(#glowbridgesecuen)"/>
  <g>
    <line x1="711" y1="136" x2="915" y2="101" stroke="#37e0c4" stroke-width="2" opacity="0.5"/>
    <line x1="915" y1="101" x2="1081" y2="181" stroke="#37e0c4" stroke-width="2" opacity="0.5"/>
    <line x1="711" y1="136" x2="675" y2="292" stroke="#37e0c4" stroke-width="2" opacity="0.5"/>
    <line x1="915" y1="101" x2="902" y2="344" stroke="#37e0c4" stroke-width="2" opacity="0.5"/>
    <line x1="1081" y1="181" x2="1086" y2="291" stroke="#37e0c4" stroke-width="2" opacity="0.5"/>
    <line x1="675" y1="292" x2="902" y2="344" stroke="#37e0c4" stroke-width="2" opacity="0.5"/>
    <line x1="902" y1="344" x2="1086" y2="291" stroke="#37e0c4" stroke-width="2" opacity="0.5"/>
    <g transform="translate(711,136)">
      <polygon points="0,-24 21,-12 21,12 0,24 -21,12 -21,-12" fill="#0e1420" stroke="#37e0c4" stroke-width="2.5" />
    </g>
    <g transform="translate(915,101)">
      <polygon points="0,-24 21,-12 21,12 0,24 -21,12 -21,-12" fill="#0e1420" stroke="#37e0c4" stroke-width="2.5" filter="url(#softbridgesecuen)"/>
    </g>
    <g transform="translate(1081,181)">
      <polygon points="0,-24 21,-12 21,12 0,24 -21,12 -21,-12" fill="#0e1420" stroke="#37e0c4" stroke-width="2.5" />
    </g>
    <g transform="translate(675,292)">
      <polygon points="0,-24 21,-12 21,12 0,24 -21,12 -21,-12" fill="#0e1420" stroke="#37e0c4" stroke-width="2.5" />
    </g>
    <g transform="translate(902,344)">
      <polygon points="0,-24 21,-12 21,12 0,24 -21,12 -21,-12" fill="#0e1420" stroke="#37e0c4" stroke-width="2.5" />
    </g>
    <g transform="translate(1086,291)">
      <polygon points="0,-24 21,-12 21,12 0,24 -21,12 -21,-12" fill="#0e1420" stroke="#37e0c4" stroke-width="2.5" />
    </g>
  </g>
  <g font-family="'Segoe UI',Arial,sans-serif" font-weight="800">
    <text font-size="44" fill="#37e0c4"><tspan x="64" y="480">Cross-Chain Bri</tspan></text>
  </g>
  <text x="64" y="516" font-family="'Segoe UI',Arial,sans-serif" font-size="18" fill="#7f8aa3">Assets Never Actually Cross — The…</text>
</svg>
